# xmcd
#
# Track frame offsets:
#	150
#	6314
#	28134
#	41649
#	63248
#	89478
#	113622
#	142113
#	167720
#	172811
#	197921
#	219047
#	231361
#
# Disc length: 3202 seconds
#
# Revision: 0
# Processed by: cddbd v1.5.1PL2 Copyright (c) Steve Scherf et al.
# Submitted via: EasyCDDAExtractor 8.1.2.3
#
DISCID=af0c800d
DTITLE=Scarface - The diary
DYEAR=2004
DGENRE=Rap
TTITLE0=Intro
TTITLE1=The White Sheets
TTITLE2=No Tears
TTITLE3=Jesse James
TTITLE4=G's
TTITLE5=I Seen A Man Die
TTITLE6=One
TTITLE7=Goin' Down
TTITLE8=One Time
TTITLE9=Hand Of The Dead Body
TTITLE10=Mind Playin' Tricks 94
TTITLE11=The Diary
TTITLE12=Outro
EXTD=
EXTT0=
EXTT1=
EXTT2=
EXTT3=
EXTT4=
EXTT5=
EXTT6=
EXTT7=
EXTT8=
EXTT9=
EXTT10=
EXTT11=
EXTT12=
PLAYORDER=
